<svg xmlns="http://www.w3.org/2000/svg" viewBox="0 0 328.59 94"><defs><style>.cls-1{fill:#fff;}.cls-2{fill:none;stroke:#fff;stroke-miterlimit:10;stroke-width:5px;}</style></defs><title>logo_2</title><g id="Layer_2" data-name="Layer 2"><g id="Layer_1-2" data-name="Layer 1"><path class="cls-1" d="M237.58,2.5v89h88.51V2.5ZM267.8,64.6a4.43,4.43,0,0,1-8.86,0V32.51a4.43,4.43,0,1,1,8.86,0Zm36.81-28H296.1v28a4.43,4.43,0,0,1-8.86,0v-28h-8.51a4.08,4.08,0,0,1,0-8.17h25.88a4.08,4.08,0,1,1,0,8.17Z"/><path class="cls-1" d="M28,49.62v-.11A15.74,15.74,0,0,1,44.06,33.77a15.59,15.59,0,0,1,16,15.62v.12A15.74,15.74,0,0,1,43.94,65.18,15.57,15.57,0,0,1,28,49.62Zm25.2,0v-.11c0-5.3-3.82-9.69-9.24-9.69s-9.06,4.33-9.06,9.58v.12c0,5.24,3.82,9.63,9.18,9.63C49.64,59.14,53.18,54.81,53.18,49.62Z"/><path class="cls-1" d="M72.9,40.33H71.7a2.87,2.87,0,0,1-2.91-2.85,2.92,2.92,0,0,1,2.91-2.91h1.2V32.35c0-3.31.85-5.81,2.45-7.41s3.82-2.39,6.78-2.39a19.89,19.89,0,0,1,3.48.29,2.87,2.87,0,0,1-.51,5.7,11,11,0,0,0-1.43-.12c-2.62,0-4,1.43-4,4.56v1.65H85a2.84,2.84,0,0,1,2.91,2.85A2.87,2.87,0,0,1,85,40.33H79.8v21a3.45,3.45,0,0,1-6.9,0Z"/><path class="cls-1" d="M110.29,65.18c-8.72,0-15.45-6.33-15.45-15.62v-.11c0-8.61,6.1-15.68,14.71-15.68,9.58,0,14.31,7.87,14.31,14.82a3.23,3.23,0,0,1-3.25,3.31H101.74c.74,4.9,4.22,7.64,8.67,7.64a10.82,10.82,0,0,0,7.13-2.62,2.57,2.57,0,0,1,1.77-.63A2.71,2.71,0,0,1,122,59.08a3,3,0,0,1-.91,2.11A15.45,15.45,0,0,1,110.29,65.18Zm6.84-17.84c-.46-4.45-3.08-7.92-7.64-7.92-4.22,0-7.18,3.25-7.81,7.92Z"/><path class="cls-1" d="M135.2,37.54a3.41,3.41,0,0,1,3.42-3.48,3.45,3.45,0,0,1,3.48,3.48v3.08c1.6-3.76,4.56-6.61,7.58-6.61a3.2,3.2,0,0,1,3.42,3.42,3.24,3.24,0,0,1-2.74,3.31c-4.9.85-8.27,4.62-8.27,11.74v8.89a3.44,3.44,0,0,1-3.48,3.42,3.39,3.39,0,0,1-3.42-3.42Z"/><path class="cls-1" d="M164.44,56.18V40.33H163.3a3,3,0,1,1,0-5.93h1.14V29.27a3.45,3.45,0,0,1,6.9,0V34.4h5.42a3,3,0,1,1,0,5.93h-5.42V55.09c0,2.68,1.37,3.76,3.71,3.76a16.32,16.32,0,0,0,1.71-.17,2.91,2.91,0,0,1,2.91,2.85,3,3,0,0,1-1.82,2.68,13.71,13.71,0,0,1-4.73.8C168,65,164.44,62.79,164.44,56.18Z"/><path class="cls-1" d="M191.4,72.94a2.94,2.94,0,0,1-2.17-2.85A2.78,2.78,0,0,1,192,67.24a3.51,3.51,0,0,1,1.25.23,7.81,7.81,0,0,0,2.39.4c2.05,0,3.14-.86,4.28-3.19l.23-.63L189,39.08a4.65,4.65,0,0,1-.4-1.65A3.31,3.31,0,0,1,192,34.06c1.77,0,2.74,1,3.36,2.62l8.09,20,7.52-20c.57-1.42,1.54-2.62,3.31-2.62a3.26,3.26,0,0,1,3.31,3.25,6.17,6.17,0,0,1-.29,1.65l-11,26.39c-2.57,6.16-5.3,8.44-10.15,8.44A12.2,12.2,0,0,1,191.4,72.94Z"/><rect class="cls-2" x="2.5" y="2.5" width="323.59" height="89"/></g></g></svg>